Coordinates
version=1
nRows=6
nColumns=36
inDegrees=yes

Units are S.I. units (second, meters, Newtons, ...)
If the header above contains a line with 'inDegrees', this indicates whether rotational values are in degrees (yes) or radians (no).

endheader
time	pelvis_tilt	pelvis_list	pelvis_rotation	pelvis_tx	pelvis_ty	pelvis_tz	hip_flexion_r	hip_adduction_r	hip_rotation_r	knee_angle_r	knee_angle_r_beta	ankle_angle_r	subtalar_angle_r	mtp_angle_r	hip_flexion_l	hip_adduction_l	hip_rotation_l	knee_angle_l	knee_angle_l_beta	ankle_angle_l	subtalar_angle_l	mtp_angle_l	lumbar_extension	lumbar_bending	lumbar_rotation	arm_flex_r	arm_add_r	arm_rot_r	elbow_flex_r	pro_sup_r	arm_flex_l	arm_add_l	arm_rot_l	elbow_flex_l	pro_sup_l
      0.00000000	     -2.58360133	     -0.74587548	     -5.65342755	      0.44279802	      1.24557121	     -0.26786510	     -1.71689805	     -1.38978977	     -3.39354712	      3.69269721	      0.06444972	     18.41680029	      8.43708601	     -6.19366351	     -3.98001938	     -1.88088459	     -6.20262228	      3.23523602	      0.05646552	     17.86289514	      7.61641476	     -6.19366351	      4.95521451	      2.63219369	      3.84719403	      1.03758637	    -11.37972921	     11.17490703	     15.42833921	     89.02603528	     -8.51676552	     -7.40908671	     -2.20247900	     19.55568928	     89.14908282
      0.01666670	     -2.51595816	     -0.79740439	     -5.54242682	      0.44150026	      1.24187250	     -0.26855072	     -2.62419413	     -0.98595125	     -3.19498427	      2.03005967	      0.03543123	     19.73126062	      7.68643896	     -6.30155940	     -4.83320495	     -1.76059288	     -5.03435812	      1.77298746	      0.03094447	     17.84118159	      7.84622122	     -6.30155940	      4.70058085	      2.73345618	      2.60197004	      2.64414156	    -11.27229586	     11.85146452	     13.61030208	     90.44278986	     -9.77377945	     -7.17283662	     -3.25981149	     19.17363895	     89.05378916
      0.03333330	     -1.47405945	     -0.78265439	     -5.54758511	      0.43972945	      1.24377617	     -0.26872749	     -3.51416189	     -0.95310467	     -3.46616530	      2.49918939	      0.04361908	     21.35610058	      7.99808507	     -6.86777047	     -6.15453584	     -1.45717176	     -5.44543989	      1.41372949	      0.02467423	     17.84318582	      7.98924545	     -6.86777047	      3.15001441	      2.75179586	      1.37310792	      4.34242747	    -11.19649757	     12.62514384	     12.11810443	     98.22942709	    -10.07207375	     -6.62452567	     -7.10940487	     19.46406155	     92.74735773
      0.05000000	     -0.76792723	     -0.71876103	     -5.34780290	      0.43666447	      1.24358291	     -0.26930830	     -3.95639890	     -1.05717282	     -4.33445213	      3.05145538	      0.05325794	     22.49817555	      8.19274571	     -7.12213011	     -6.86155528	     -1.21114998	     -5.72119577	      1.32154510	      0.02306531	     18.01262479	      8.10534946	     -7.12213011	      1.83761878	      2.65390497	      0.75744742	      5.39668160	    -11.27389379	     14.70224653	     11.62830063	     99.11156492	     -9.80236170	     -6.55992280	     -7.19952778	     19.46367615	     92.80333258
      0.06666670	     -0.03015570	     -0.52041549	     -5.31689581	      0.43461375	      1.24417503	     -0.26960278	     -4.39425590	     -1.31838910	     -4.63018211	      3.62148937	      0.06320691	     23.55849595	      8.08171256	     -7.26621249	     -7.52418758	     -0.86263358	     -5.78373584	      1.33976304	      0.02338328	     18.07029798	      8.01207257	     -7.26621249	      0.61329405	      2.38736218	      0.46005265	      6.37556145	    -11.27642239	     18.69972490	     10.94858310	     95.51205641	     -9.44631361	     -6.82328152	     -4.85582732	     19.23270979	     90.29860733
      0.08333330	      0.52512256	     -0.30040060	     -5.46049258	      0.43203758	      1.24439978	     -0.26964316	     -4.59233595	     -1.64615085	     -5.06732780	      4.23809012	      0.07396863	     24.22970680	      8.04444057	     -7.36680400	     -8.03269713	     -0.51426298	     -6.07960422	      1.29443890	      0.02259222	     18.04470135	      7.96964560	     -7.36680400	     -0.43284590	      2.12715660	      0.54435269	      6.91504894	    -11.12034084	     16.91802785	     10.81254793	    100.38111852	     -9.32715589	     -6.52405696	     -8.07959356	     19.77925983	     94.22959542
